# xmcd
#
# Track frame offsets: 
#        150
#        18068
#        46556
#        65072
#        87700
#        105511
#        122009
#        138741
#        152928
#        178022
#        202463
#        229438
#        256378
#
# Disc length: 3566 seconds
#
# Revision: 0
# Processed by: cddbd v1.5.2PL0 Copyright (c) Steve Scherf et al.
# Submitted via: ExactAudioCopy v1.0b4
#
DISCID=be0dec0d
DTITLE=Mz Dee and Maurizo Pungo Large Band - The Next Episode
DYEAR=2013
DGENRE=Blues
TTITLE0=Dirty Dancing
TTITLE1=Don't Kiss And Tell
TTITLE2=So Called Love
TTITLE3=Back In Baby's Arms
TTITLE4=In Your Lovin' Arms
TTITLE5=Where To Go
TTITLE6=Good Rockin' Daddy
TTITLE7=Drownin' On Dry Land
TTITLE8=You're Got That Something
TTITLE9=Jive Talkin' (Texas Lapsus)
TTITLE10=Your Love Is So Doggone Good
TTITLE11=The Next Episode
TTITLE12=I'm Movin'
EXTD=
EXTT0=
EXTT1=
EXTT2=
EXTT3=
EXTT4=
EXTT5=
EXTT6=
EXTT7=
EXTT8=
EXTT9=
EXTT10=
EXTT11=
EXTT12=
PLAYORDER=
